<svg id="Layer_1" enable-background="new 0 0 512.385 512.385" height="512" viewBox="0 0 512.385 512.385" width="512" xmlns="http://www.w3.org/2000/svg"><g><g><path d="m61.655 332.449c-8.276 0-14.99-6.704-15-14.982-.009-8.285 6.699-15.008 14.983-15.018l112.961-.129h.018c8.276 0 14.99 6.704 15 14.982.009 8.285-6.699 15.008-14.983 15.018l-112.961.129c-.006 0-.012 0-.018 0z" fill="#fff5f5"/></g><g><path d="m16.062 466.555c-8.276 0-14.99-6.704-15-14.982-.009-8.285 6.699-15.008 14.983-15.018l203.977-.232h.018c8.276 0 14.99 6.704 15 14.982.009 8.285-6.699 15.008-14.983 15.018l-203.977.232c-.006 0-.012 0-.018 0z" fill="#fff5f5"/></g><g><path d="m29.73 399.513c-8.276 0-14.99-6.704-15-14.983-.009-8.284 6.699-15.007 14.983-15.017l176.726-.201h.018c8.276 0 14.99 6.704 15 14.983.009 8.284-6.699 15.007-14.983 15.017l-176.726.201c-.006 0-.013 0-.018 0z" fill="#fff5f5"/></g><g><path d="m61.74 197.862c-8.276 0-14.99-6.704-15-14.982-.009-8.285 6.699-15.008 14.983-15.018l112.961-.129h.018c8.276 0 14.99 6.704 15 14.982.009 8.285-6.699 15.008-14.983 15.018l-112.961.129c-.005 0-.012 0-.018 0z" fill="#ffd321"/></g><g><path d="m28.56 130.873c-8.276 0-14.99-6.704-15-14.983-.009-8.284 6.699-15.007 14.983-15.017l179.408-.204h.018c8.276 0 14.99 6.704 15 14.983.009 8.284-6.699 15.007-14.983 15.017l-179.408.204c-.006 0-.013 0-.018 0z" fill="#ffd321"/></g><g><path d="m15.606 63.861c-8.276 0-14.99-6.704-15-14.982-.009-8.285 6.699-15.008 14.983-15.018l205.402-.234h.018c8.276 0 14.99 6.704 15 14.982.009 8.285-6.699 15.008-14.983 15.018l-205.403.234c-.005 0-.012 0-.017 0z" fill="#ffd321"/></g><path d="m16.777 512.385c-7.188 0-13.531-5.171-14.764-12.493-.244-1.447-5.854-34.993 3.924-83.938 8.956-44.83 33.12-111.062 97.375-172.008 124.294-117.892 101.275-224.289 101.028-225.35-1.878-8.068 3.139-16.132 11.208-18.011 8.065-1.88 16.132 3.139 18.011 11.208.304 1.304 7.317 32.48-3.136 79.532-6.032 27.153-16.667 54.288-31.609 80.651-18.492 32.626-43.677 64.163-74.855 93.735-46.633 44.231-76.354 96.315-88.336 154.806-8.984 43.856-4.07 74.118-4.019 74.429 1.332 8.162-4.189 15.881-12.348 17.233-.834.138-1.662.206-2.479.206z" fill="#00d5dd"/><g><g><path d="m292.113 45.83c-8.276 0-14.99 6.704-15 14.982-.009 8.285 6.699 15.008 14.983 15.018l203.977.232h.018c8.276 0 14.99-6.704 15-14.982.009-8.285-6.699-15.008-14.983-15.018l-203.977-.232c-.006 0-.012 0-.018 0z" fill="#fff5f5"/></g><g><path d="m305.781 112.872c-8.276 0-14.99 6.704-15 14.983-.009 8.284 6.699 15.007 14.983 15.017l176.726.201h.018c8.276 0 14.99-6.704 15-14.983.009-8.284-6.699-15.007-14.983-15.017l-176.726-.201c-.006 0-.012 0-.018 0z" fill="#fff5f5"/></g><g><path d="m304.611 381.512c-8.276 0-14.99 6.704-15 14.983-.009 8.284 6.699 15.007 14.983 15.017l179.408.204h.018c8.276 0 14.99-6.704 15-14.983.009-8.284-6.699-15.007-14.983-15.017l-179.408-.204c-.006 0-.013 0-.018 0z" fill="#ffd321"/></g><g><path d="m291.657 448.523c-8.276 0-14.99 6.704-15 14.982-.009 8.285 6.699 15.008 14.983 15.018l205.402.234h.018c8.276 0 14.99-6.704 14.999-14.982.009-8.285-6.699-15.008-14.983-15.018l-205.402-.234c-.005 0-.011 0-.017 0z" fill="#ffd321"/></g><g><path d="m292.829 0c-7.188 0-13.531 5.171-14.764 12.493-.244 1.447-5.854 34.993 3.924 83.938 8.956 44.83 33.12 111.062 97.375 172.008 124.293 117.893 101.274 224.289 101.027 225.351-1.878 8.068 3.139 16.132 11.208 18.011 8.065 1.88 16.132-3.139 18.011-11.208.304-1.304 7.317-32.48-3.136-79.532-6.032-27.153-16.667-54.288-31.609-80.651-18.492-32.626-43.677-64.163-74.855-93.735-46.633-44.231-76.354-96.315-88.336-154.806-8.984-43.856-4.07-74.118-4.019-74.429 1.332-8.162-4.189-15.881-12.348-17.233-.833-.14-1.661-.207-2.478-.207z" fill="#00d5dd"/></g><path d="m497.06 478.758h-.018l-102.94-.117v-30l102.975.117c8.284.01 14.992 6.732 14.983 15.018-.01 8.278-6.724 14.982-15 14.982z" fill="#ffb454"/><path d="m484.02 411.716h-.018l-89.901-.102v-30l89.935.102c8.284.01 14.992 6.732 14.983 15.017-.009 8.279-6.722 14.983-14.999 14.983z" fill="#ffb454"/><path d="m491.599 511.8c-8.068-1.879-13.086-9.942-11.208-18.011.237-1.017 21.367-98.79-86.29-210.705v-42.164c1.942 1.93 3.903 3.851 5.908 5.752 31.178 29.572 56.363 61.109 74.855 93.735 14.942 26.363 25.578 53.498 31.609 80.651 10.453 47.052 3.439 78.229 3.136 79.532-1.878 8.071-9.945 13.09-18.01 11.21z" fill="#00c6cb"/><path d="m482.508 143.073h-.018l-88.389-.101v-30l88.423.101c8.284.01 14.992 6.732 14.983 15.017-.009 8.279-6.723 14.983-14.999 14.983z" fill="#f4f1f1"/><path d="m496.091 76.062h-.018l-101.971-.116v-30l102.005.116c8.284.01 14.992 6.732 14.983 15.018-.009 8.278-6.723 14.982-14.999 14.982z" fill="#f4f1f1"/><g><path d="m495.306.213c-.833 0-1.677.069-2.526.213-8.167 1.386-13.666 9.13-12.28 17.298.044.273 5 30.546-3.928 74.38-11.906 58.452-41.553 110.458-88.12 154.573-31.146 29.507-56.296 60.993-74.75 93.583-14.912 26.334-25.514 53.449-31.512 80.593-10.394 47.031-3.341 78.222-3.036 79.526 1.888 8.065 9.959 13.068 18.023 11.188 8.045-1.883 13.049-9.913 11.203-17.957-.108-.493-5.834-27.393 3.513-68.104 8.697-37.88 32.618-95.875 97.191-157.049 64.192-60.813 88.276-127.003 97.177-171.82 9.716-48.925 4.062-82.482 3.816-83.93-1.242-7.319-7.589-12.494-14.771-12.494z" fill="#ff4a4a"/></g><path d="m409.083 268.456c-5.261 4.984-10.247 9.946-14.981 14.878v-42.147c43.315-42.92 71.053-93.036 82.469-149.084 8.928-43.834 3.973-74.106 3.928-74.38-1.385-8.168 4.113-15.912 12.28-17.298.849-.144 1.693-.213 2.526-.213 7.182 0 13.529 5.175 14.771 12.493.246 1.447 5.9 35.005-3.816 83.93-8.901 44.818-32.985 111.008-97.177 171.821z" fill="#e20059"/></g><g fill="#ffb454"><path d="m221.008 33.627h-.018l-102.94.117v30l102.975-.117c8.284-.01 14.992-6.732 14.983-15.018-.009-8.278-6.723-14.982-15-14.982z"/><path d="m207.969 100.669h-.018l-89.901.102v30l89.935-.102c8.284-.01 14.992-6.732 14.983-15.017-.009-8.279-6.723-14.983-14.999-14.983z"/><path d="m174.702 167.733h-.018l-56.634.065v30l56.668-.065c8.284-.01 14.992-6.732 14.983-15.018-.008-8.277-6.722-14.982-14.999-14.982z"/></g><path d="m215.547.585c-8.068 1.879-13.086 9.942-11.208 18.011.237 1.017 21.367 98.79-86.29 210.705v42.164c1.942-1.93 3.903-3.851 5.908-5.752 31.178-29.572 56.363-61.109 74.855-93.735 14.942-26.363 25.578-53.498 31.609-80.651 10.453-47.052 3.439-78.229 3.136-79.532-1.877-8.071-9.945-13.09-18.01-11.21z" fill="#00c6cb"/><path d="m174.617 302.32h-.018l-56.549.064v30l56.583-.064c8.284-.01 14.992-6.732 14.983-15.018-.009-8.278-6.723-14.982-14.999-14.982z" fill="#f4f1f1"/><path d="m206.457 369.312h-.018l-88.389.101v30l88.423-.101c8.284-.01 14.992-6.732 14.983-15.017-.009-8.279-6.723-14.983-14.999-14.983z" fill="#f4f1f1"/><path d="m220.039 436.322h-.018l-101.971.116v30l102.005-.116c8.284-.01 14.992-6.732 14.983-15.018-.009-8.278-6.722-14.982-14.999-14.982z" fill="#f4f1f1"/><g><g><path d="m218.966 511.944c-.833 0-1.677-.069-2.526-.213-8.167-1.386-13.666-9.13-12.28-17.298.044-.273 5-30.546-3.928-74.38-11.906-58.452-41.553-110.458-88.12-154.573-31.146-29.507-56.296-60.993-74.75-93.583-14.912-26.334-25.514-53.449-31.512-80.593-10.395-47.031-3.342-78.222-3.037-79.526 1.888-8.066 9.96-13.069 18.023-11.188 8.045 1.883 13.049 9.913 11.203 17.957-.108.493-5.834 27.393 3.513 68.104 8.697 37.88 32.618 95.875 97.191 157.049 64.192 60.813 88.276 127.003 97.177 171.82 9.716 48.925 4.062 82.482 3.816 83.93-1.241 7.319-7.588 12.494-14.77 12.494z" fill="#ff4a4a"/></g><path d="m132.743 243.7c-5.261-4.984-10.247-9.946-14.981-14.878v42.147c43.315 42.92 71.053 93.036 82.469 149.084 8.928 43.834 3.973 74.106 3.928 74.38-1.385 8.168 4.113 15.912 12.28 17.298.849.144 1.693.213 2.526.213 7.182 0 13.529-5.175 14.771-12.493.246-1.447 5.9-35.005-3.816-83.93-8.901-44.818-32.985-111.007-97.177-171.821z" fill="#e20059"/></g></g></svg>